<?xml version="1.0" encoding="UTF-8"?>
<!DOCTYPE svg PUBLIC "-//W3C//DTD SVG 1.1//EN" "http://www.w3.org/Graphics/SVG/1.1/DTD/svg11.dtd">
<svg xmlns="http://www.w3.org/2000/svg" version="1.1" width="176px" height="124px" style="shape-rendering:geometricPrecision; text-rendering:geometricPrecision; image-rendering:optimizeQuality; fill-rule:evenodd; clip-rule:evenodd" xmlns:xlink="http://www.w3.org/1999/xlink">
<g><path style="opacity:1" fill="#403c39" d="M 80.5,5.5 C 88.5835,5.5104 96.5835,6.34373 104.5,8C 112.638,10.5452 120.638,13.3786 128.5,16.5C 128.665,14.1732 129.331,12.0065 130.5,10C 134.078,10.0278 137.578,9.86112 141,9.5C 142.711,9.43928 144.044,10.1059 145,11.5C 144.839,17.4968 144.339,23.4968 143.5,29.5C 143.667,31.8333 143.833,34.1667 144,36.5C 146.263,38.7078 147.929,38.0411 149,34.5C 149.936,28.2995 150.769,22.1328 151.5,16C 155.717,16.06 159.717,16.3933 163.5,17C 166.322,18.5744 169.156,20.0744 172,21.5C 173.897,31.8755 172.23,41.5422 167,50.5C 161.232,56.1502 154.399,58.1502 146.5,56.5C 143.888,57.7787 141.555,59.4453 139.5,61.5C 142.093,65.2029 141.427,68.3695 137.5,71C 147,80.8866 148.167,91.7199 141,103.5C 132.062,109.369 122.229,112.869 111.5,114C 107.469,116.455 103.136,118.121 98.5,119C 89.4469,119.846 80.4469,119.513 71.5,118C 61.4495,113.57 51.1162,109.903 40.5,107C 33.2913,103.793 29.1246,98.2929 28,90.5C 25.6284,81.6798 27.795,74.3465 34.5,68.5C 31.9557,65.9468 31.9557,63.4468 34.5,61C 30.0232,57.0226 24.6899,55.3559 18.5,56C 10.8703,54.3728 5.70361,49.8728 3,42.5C 0.668673,35.2112 0.335339,27.8779 2,20.5C 3.46002,18.5776 5.12668,17.9109 7,18.5C 9.24076,15.7728 11.9074,15.1062 15,16.5C 17.2431,14.718 19.7431,14.218 22.5,15C 23.3588,21.4453 24.1922,27.9453 25,34.5C 26.2512,37.8163 27.9179,38.1496 30,35.5C 30.803,28.2415 30.303,21.0748 28.5,14C 28.1448,10.6858 29.6448,8.85244 33,8.5C 36.1399,9.25544 39.3066,9.4221 42.5,9C 44.6362,11.8997 46.3029,15.0664 47.5,18.5C 57.4393,11.1925 68.4393,6.85913 80.5,5.5 Z M 41.5,48.5 C 43.9701,49.3603 44.1368,50.6936 42,52.5C 41.2496,51.8742 40.4162,51.3742 39.5,51C 40.3805,50.2917 41.0472,49.4584 41.5,48.5 Z M 133.5,58.5 C 132.5,58.5 131.5,58.5 130.5,58.5C 129.433,56.1205 130.433,55.1205 133.5,55.5C 133.5,56.5 133.5,57.5 133.5,58.5 Z"/></g>
<g><path style="opacity:1" fill="#b3444f" d="M 123.5,60.5 C 132.298,66.138 138.798,73.8046 143,83.5C 143.211,88.91 142.544,94.2434 141,99.5C 139.5,102.333 137.333,104.5 134.5,106C 128.81,108.924 122.81,110.257 116.5,110C 121.417,104.34 124.25,97.8396 125,90.5C 117.73,78.7769 107.23,71.9436 93.5,70C 79.8783,67.2196 67.545,69.8863 56.5,78C 53.0593,80.7676 50.3927,84.101 48.5,88C 49.8379,95.1905 52.1712,102.024 55.5,108.5C 46.8587,108.776 39.3587,105.776 33,99.5C 32.0728,90.642 35.2395,83.4753 42.5,78C 62.1309,64.4071 83.4642,60.7404 106.5,67C 116.436,71.4447 125.103,77.6113 132.5,85.5C 125.239,74.7717 115.239,67.6051 102.5,64C 83.0882,59.9175 64.7549,62.9175 47.5,73C 40.2816,77.2182 34.7816,83.0515 31,90.5C 28.1305,86.0603 27.7971,81.3936 30,76.5C 34.3644,70.9703 39.1977,65.9703 44.5,61.5C 47.1401,60.1799 49.8068,58.8466 52.5,57.5C 68.8838,50.0244 85.8838,48.5244 103.5,53C 110.297,55.2355 116.964,57.7355 123.5,60.5 Z"/></g>
<g><path style="opacity:1" fill="#d6d6d6" d="M 132.5,50.5 C 134.337,50.6395 134.67,51.3061 133.5,52.5C 132.702,52.0431 132.369,51.3764 132.5,50.5 Z"/></g>
<g><path style="opacity:1" fill="#352f30" d="M 123.5,59.5 C 123.5,59.8333 123.5,60.1667 123.5,60.5C 116.964,57.7355 110.297,55.2355 103.5,53C 85.8838,48.5244 68.8838,50.0244 52.5,57.5C 52.5,56.8333 52.1667,56.5 51.5,56.5C 58.1426,52.2701 65.476,49.9368 73.5,49.5C 72.9862,47.4884 72.8195,45.4884 73,43.5C 75.0353,41.7596 76.8686,39.9262 78.5,38C 76.024,35.6887 73.6907,33.1887 71.5,30.5C 73.0499,26.0914 76.0499,23.9247 80.5,24C 83.3442,26.1808 86.1776,28.3475 89,30.5C 92.6667,28.1667 96.3333,25.8333 100,23.5C 103.267,25.0968 105.434,27.5968 106.5,31C 104.665,33.9278 102.332,36.4278 99.5,38.5C 100.528,40.3615 102.028,41.6948 104,42.5C 104.986,45.7417 104.152,48.4083 101.5,50.5C 109.299,52.4009 116.633,55.4009 123.5,59.5 Z"/></g>
<g><path style="opacity:1" fill="#9f6f40" d="M 162.5,40.5 C 163.558,39.3998 164.392,38.0664 165,36.5C 165.499,31.5111 165.666,26.5111 165.5,21.5C 167.167,21.5 168.833,21.5 170.5,21.5C 171.899,31.8795 170.065,41.5461 165,50.5C 158.53,54.7592 151.363,56.5925 143.5,56C 141.49,58.7746 138.99,59.6079 136,58.5C 135.161,55.8604 135.661,53.5271 137.5,51.5C 130.925,45.6814 127.592,38.3481 127.5,29.5C 127.872,23.6761 129.039,18.0094 131,12.5C 132.356,11.6198 133.856,11.2865 135.5,11.5C 133.815,19.422 133.315,27.422 134,35.5C 134.893,36.7112 135.726,36.7112 136.5,35.5C 135.034,28.0594 135.534,20.7261 138,13.5C 140.952,10.5585 143.119,11.0585 144.5,15C 141.682,22.2481 140.849,29.7481 142,37.5C 143.938,40.3895 146.105,43.0562 148.5,45.5C 149.282,43.6707 148.616,42.1707 146.5,41C 148.894,39.0478 150.394,36.5478 151,33.5C 152.095,28.2203 152.595,22.887 152.5,17.5C 154.144,17.2865 155.644,17.6198 157,18.5C 157.667,23.8333 157.667,29.1667 157,34.5C 156.274,37.6207 154.774,40.2873 152.5,42.5C 153.868,43.5937 155.035,43.2603 156,41.5C 159.125,34.1813 160.292,26.5146 159.5,18.5C 161.144,18.2865 162.644,18.6198 164,19.5C 164.66,26.5855 164.16,33.5855 162.5,40.5 Z"/></g>
<g><path style="opacity:1" fill="#2b2e2f" d="M 162.5,40.5 C 162.082,43.4389 160.582,45.7722 158,47.5C 157.333,46.8333 157.333,46.1667 158,45.5C 159.736,43.9368 161.236,42.2701 162.5,40.5 Z"/></g>
<g><path style="opacity:1" fill="#a06f40" d="M 31.5,10.5 C 34.595,10.6263 36.4283,12.293 37,15.5C 38.3243,22.3823 38.8243,29.049 38.5,35.5C 39.9689,32.8858 40.6356,30.0524 40.5,27C 39.8861,21.4857 39.2195,15.9857 38.5,10.5C 40.1439,10.2865 41.6439,10.6198 43,11.5C 49.2241,25.9958 47.3908,39.1625 37.5,51C 39.5731,54.5804 42.5731,55.4138 46.5,53.5C 47.4287,54.6888 47.762,56.0222 47.5,57.5C 43.9582,57.3802 40.4582,57.7135 37,58.5C 34.3359,58.2514 32.1692,57.0847 30.5,55C 18.2911,57.1492 9.79107,52.6492 5,41.5C 3.66102,34.5736 3.16102,27.5736 3.5,20.5C 4.83333,20.5 6.16667,20.5 7.5,20.5C 7.23043,28.986 9.06376,36.986 13,44.5C 14,45.1667 15,45.8333 16,46.5C 14.0898,43.5042 12.4232,40.1709 11,36.5C 9.59415,30.5578 9.26082,24.5578 10,18.5C 11.3561,17.6198 12.8561,17.2865 14.5,17.5C 13.9272,25.0347 14.7605,32.368 17,39.5C 18.1707,41.6157 19.6707,42.2824 21.5,41.5C 19.8409,40.1832 18.6743,38.5165 18,36.5C 16.6446,30.2151 16.3113,23.8818 17,17.5C 18.3561,16.6198 19.8561,16.2865 21.5,16.5C 21.4054,21.887 21.9054,27.2203 23,32.5C 23.6064,35.5478 25.1064,38.0478 27.5,40C 26.3128,41.0195 25.3128,42.1861 24.5,43.5C 25.0016,44.521 25.6683,44.6877 26.5,44C 32.1645,37.9407 33.9978,30.7741 32,22.5C 31.6696,19.5113 30.8362,16.678 29.5,14C 29.9783,12.6974 30.645,11.5307 31.5,10.5 Z"/></g>
<g><path style="opacity:1" fill="#b3444f" d="M 123.5,59.5 C 116.633,55.4009 109.299,52.4009 101.5,50.5C 104.152,48.4083 104.986,45.7417 104,42.5C 102.028,41.6948 100.528,40.3615 99.5,38.5C 102.332,36.4278 104.665,33.9278 106.5,31C 105.434,27.5968 103.267,25.0968 100,23.5C 96.3333,25.8333 92.6667,28.1667 89,30.5C 86.1776,28.3475 83.3442,26.1808 80.5,24C 76.0499,23.9247 73.0499,26.0914 71.5,30.5C 73.6907,33.1887 76.024,35.6887 78.5,38C 76.8686,39.9262 75.0353,41.7596 73,43.5C 72.8195,45.4884 72.9862,47.4884 73.5,49.5C 65.476,49.9368 58.1426,52.2701 51.5,56.5C 49.8148,55.8163 48.8148,54.483 48.5,52.5C 47.675,51.6143 46.675,51.281 45.5,51.5C 43.8193,46.917 44.3193,42.5836 47,38.5C 47.3333,32.5 47.6667,26.5 48,20.5C 60.1401,11.5448 73.8068,7.21144 89,7.5C 102.086,8.91 114.419,12.5767 126,18.5C 126.333,24.8333 126.667,31.1667 127,37.5C 127.521,40.8742 128.854,43.8742 131,46.5C 131.495,48.4727 131.662,50.4727 131.5,52.5C 125.711,51.5371 123.711,53.7038 125.5,59C 124.906,59.4643 124.239,59.631 123.5,59.5 Z"/></g>
<g><path style="opacity:1" fill="#a6424c" d="M 87.5,45.5 C 90.0842,45.5688 92.0842,46.7355 93.5,49C 90.7929,49.3283 88.1262,48.995 85.5,48C 86.3805,47.2917 87.0472,46.4584 87.5,45.5 Z"/></g>
<g><path style="opacity:1" fill="#dbdbdb" d="M 77.5,24.5 C 81.2849,26.9033 84.9516,29.57 88.5,32.5C 91.6985,30.1365 95.0319,27.9698 98.5,26C 101.852,25.9895 104.185,27.6562 105.5,31C 102.349,33.3174 99.3491,35.8174 96.5,38.5C 99.7826,40.58 101.949,43.2466 103,46.5C 101.649,48.019 100.149,49.3523 98.5,50.5C 95.1667,48.1667 91.8333,45.8333 88.5,43.5C 86.6414,45.1924 84.6414,46.6924 82.5,48C 80.0982,48.8141 77.7649,48.6474 75.5,47.5C 74.5721,46.2322 74.4054,44.8989 75,43.5C 77.46,42.0422 79.6266,40.2089 81.5,38C 78.3407,35.768 75.674,33.1013 73.5,30C 74.6502,28.019 75.9835,26.1857 77.5,24.5 Z"/></g>
<g><path style="opacity:1" fill="#403435" d="M 71.5,12.5 C 73.924,12.1924 76.2573,12.5258 78.5,13.5C 72.6494,14.7352 66.9827,16.2352 61.5,18C 64.7667,15.8703 68.1,14.037 71.5,12.5 Z"/></g>
<g><path style="opacity:0.204" fill="#8a8b8b" d="M 133.5,58.5 C 133.5,57.5 133.5,56.5 133.5,55.5C 130.433,55.1205 129.433,56.1205 130.5,58.5C 128.824,57.8166 128.157,56.4832 128.5,54.5C 130.5,54.5 132.5,54.5 134.5,54.5C 134.768,56.099 134.434,57.4324 133.5,58.5 Z M 133.5,58.5 C 132.5,58.5 131.5,58.5 130.5,58.5C 129.433,56.1205 130.433,55.1205 133.5,55.5C 133.5,56.5 133.5,57.5 133.5,58.5 Z"/></g>
<g><path style="opacity:1" fill="#c4966d" d="M 44.5,61.5 C 41.5534,62.6441 38.8867,64.3107 36.5,66.5C 35.3012,62.3395 36.9679,60.0061 41.5,59.5C 43.0296,59.6399 44.0296,60.3065 44.5,61.5 Z"/></g>
<g><path style="opacity:1" fill="#cd9d72" d="M 127.5,60.5 C 130.978,60.1842 134.312,60.6842 137.5,62C 138.591,64.0639 138.758,66.2305 138,68.5C 137.282,69.4506 136.449,69.6172 135.5,69C 133.295,66.4598 130.795,64.2932 128,62.5C 127.536,61.9056 127.369,61.2389 127.5,60.5 Z"/></g>
<g><path style="opacity:1" fill="#313131" d="M 132.5,85.5 C 135.32,87.4784 136.82,90.145 137,93.5C 135.223,90.9406 133.723,88.2739 132.5,85.5 Z"/></g>
<g><path style="opacity:1" fill="#d2a174" d="M 72.5,71.5 C 90.3457,68.1646 105.846,72.4979 119,84.5C 120.914,86.7481 122.414,89.2481 123.5,92C 120.553,105.614 112.22,113.947 98.5,117C 90.8333,117.667 83.1667,117.667 75.5,117C 58.5128,114.005 50.3461,103.839 51,86.5C 56.4383,78.8752 63.605,73.8752 72.5,71.5 Z"/></g>
<g><path style="opacity:1" fill="#584c41" d="M 99.5,99.5 C 102.293,103.171 105.96,104.338 110.5,103C 115.726,98.5847 115.726,94.2514 110.5,90C 105.96,88.6624 102.293,89.8291 99.5,93.5C 103.982,85.9175 109.149,85.5842 115,92.5C 116.135,102.372 111.968,106.205 102.5,104C 100.859,102.871 99.8588,101.371 99.5,99.5 Z"/></g>
<g><path style="opacity:1" fill="#32343c" d="M 88.5,98.5 C 86.5,98.5 84.5,98.5 82.5,98.5C 82.5,99.5 82.5,100.5 82.5,101.5C 80.5337,100.745 80.2004,99.5788 81.5,98C 84.0385,97.2042 86.3718,97.3709 88.5,98.5 Z"/></g>
<g><path style="opacity:1" fill="#295094" d="M 88.5,98.5 C 89.404,99.209 89.7373,100.209 89.5,101.5C 87.1667,102.833 84.8333,102.833 82.5,101.5C 82.5,100.5 82.5,99.5 82.5,98.5C 84.5,98.5 86.5,98.5 88.5,98.5 Z"/></g>
<g><path style="opacity:1" fill="#e4e4e4" d="M 99.5,99.5 C 99.5,97.5 99.5,95.5 99.5,93.5C 102.293,89.8291 105.96,88.6624 110.5,90C 115.726,94.2514 115.726,98.5847 110.5,103C 105.96,104.338 102.293,103.171 99.5,99.5 Z"/></g>
<g><path style="opacity:1" fill="#2d2e2e" d="M 104.5,91.5 C 110.803,91.9239 112.469,94.7572 109.5,100C 102.421,100.527 100.754,97.694 104.5,91.5 Z"/></g>
<g><path style="opacity:1" fill="#5d5249" d="M 60.5,99.5 C 58.1791,94.1396 59.8458,90.3063 65.5,88C 73.5024,87.6705 77.0024,91.5038 76,99.5C 73.1034,104.155 68.9367,105.655 63.5,104C 61.8588,102.871 60.8588,101.371 60.5,99.5 Z"/></g>
<g><path style="opacity:1" fill="#e1e1e1" d="M 60.5,99.5 C 60.3133,91.8526 63.98,88.6859 71.5,90C 75.0498,93.7315 75.3831,97.7315 72.5,102C 67.7565,104.489 63.7565,103.655 60.5,99.5 Z"/></g>
<g><path style="opacity:1" fill="#2c2c2c" d="M 65.5,91.5 C 71.2641,91.8596 72.9308,94.6929 70.5,100C 62.2085,100.89 60.5418,98.0567 65.5,91.5 Z"/></g>
<g><path style="opacity:1" fill="#55473c" d="M 103.5,83.5 C 104.978,83.238 106.311,83.5713 107.5,84.5C 105.535,85.2922 103.535,85.9588 101.5,86.5C 101.167,86.1667 100.833,85.8333 100.5,85.5C 101.602,84.8243 102.602,84.1577 103.5,83.5 Z"/></g>
<g><path style="opacity:1" fill="#463d36" d="M 65.5,83.5 C 65.56,82.9569 65.8933,82.6236 66.5,82.5C 68.1667,83.3333 69.8333,84.1667 71.5,85C 69.3049,85.4094 67.3049,84.9094 65.5,83.5 Z"/></g>
<g><path style="opacity:1" fill="#52443d" d="M 82.5,101.5 C 84.8333,102.833 87.1667,102.833 89.5,101.5C 87.4551,102.923 86.4551,104.923 86.5,107.5C 89.3646,107.945 91.8646,107.278 94,105.5C 94.1667,105.833 94.3333,106.167 94.5,106.5C 91.9821,108.071 89.9821,110.071 88.5,112.5C 88.5,111.167 88.5,109.833 88.5,108.5C 86.5,108.5 84.5,108.5 82.5,108.5C 82.5,109.833 82.5,111.167 82.5,112.5C 80.8317,110.487 78.8317,108.82 76.5,107.5C 78.8857,107.324 81.5524,107.324 84.5,107.5C 84.7475,105.142 84.0808,103.142 82.5,101.5 Z"/></g>
<g><path style="opacity:1" fill="#c34d56" d="M 88.5,112.5 C 86.5,113.833 84.5,113.833 82.5,112.5C 82.5,111.167 82.5,109.833 82.5,108.5C 84.5,108.5 86.5,108.5 88.5,108.5C 88.5,109.833 88.5,111.167 88.5,112.5 Z"/></g>
<g><path style="opacity:1" fill="#483937" d="M 82.5,112.5 C 84.5,113.833 86.5,113.833 88.5,112.5C 88.0296,113.693 87.0296,114.36 85.5,114.5C 83.9704,114.36 82.9704,113.693 82.5,112.5 Z"/></g>
</svg>
